# xmcd CD database file
#
# Track frame offsets:
#	150
#	16340
#	33338
#	47181
#	59339
#	77228
#	89722
#	102155
#	122009
#	136539
#	151405
#	166167
#	180227
#
# Disc length: 2597 seconds
#
# Revision: 0
# Processed by: cddbd v1.5.2PL0 Copyright (c) Steve Scherf et al.
# Submitted via: CDex 1.51
#
DISCID=9b0a230d
DTITLE=Terry Lee Goffee - Blame it on Hank
DYEAR=2010
DGENRE=Country
TTITLE0=Terry Lee Goffee - Blame It On Hank
TTITLE1=Terry Lee Goffee - Room #8
TTITLE2=Terry Lee Goffee - Pam's Song
TTITLE3=Terry Lee Goffee - Country From The Start
TTITLE4=Terry Lee Goffee - Arms Of Any Stranger
TTITLE5=Terry Lee Goffee - Ballad Of D. B. Cooper
TTITLE6=Terry Lee Goffee - Down With It
TTITLE7=Terry Lee Goffee - She Can't Teach Me To Forget
TTITLE8=Terry Lee Goffee - Hey Lady
TTITLE9=Terry Lee Goffee - 45 Dollars In Quarters
TTITLE10=Terry Lee Goffee - Last Night I Had The Strangest Dream
TTITLE11=Terry Lee Goffee - Stranger In My Life
TTITLE12=Terry Lee Goffee - The Man In Black Is Gone
EXTD=YEAR: 2010
EXTT0=
EXTT1=
EXTT2=
EXTT3=
EXTT4=
EXTT5=
EXTT6=
EXTT7=
EXTT8=
EXTT9=
EXTT10=
EXTT11=
EXTT12=
PLAYORDER=
